<svg xmlns="http://www.w3.org/2000/svg" viewBox="0 0 640 640"><path d="M75.294 98.824H564.706A75.294 75.294 0 0 1 640 174.118V465.882A75.294 75.294 0 0 1 564.706 541.176H75.294A75.294 75.294 0 0 1 0 465.882V174.118A75.294 75.294 0 0 1 75.294 98.824ZM75.294 160A14.118 14.118 0 0 0 61.176 174.118V465.882A14.118 14.118 0 0 0 75.294 480H564.706A14.118 14.118 0 0 0 578.824 465.882V174.118A14.118 14.118 0 0 0 564.706 160ZM368.959 294.571L412.218 251.312L496.924 336.018L453.665 379.276ZM360 272.941A30.588 30.588 0 0 1 421.176 272.941A30.588 30.588 0 0 1 360 272.941ZM444.706 357.647A30.588 30.588 0 0 1 505.882 357.647A30.588 30.588 0 0 1 444.706 357.647ZM496.924 379.276L453.665 336.018L538.371 251.312L581.629 294.571ZM444.706 357.647A30.588 30.588 0 0 1 505.882 357.647A30.588 30.588 0 0 1 444.706 357.647ZM529.412 272.941A30.588 30.588 0 0 1 590.588 272.941A30.588 30.588 0 0 1 529.412 272.941Z"/></svg>
