<svg xmlns="http://www.w3.org/2000/svg" viewBox="0 0 640 640"><path d="M75.294 98.824H564.706A75.294 75.294 0 0 1 640 174.118V465.882A75.294 75.294 0 0 1 564.706 541.176H75.294A75.294 75.294 0 0 1 0 465.882V174.118A75.294 75.294 0 0 1 75.294 98.824ZM75.294 160A14.118 14.118 0 0 0 61.176 174.118V465.882A14.118 14.118 0 0 0 75.294 480H564.706A14.118 14.118 0 0 0 578.824 465.882V174.118A14.118 14.118 0 0 0 564.706 160ZM103.529 291.765H207.059A28.235 28.235 0 0 1 235.294 320V320A28.235 28.235 0 0 1 207.059 348.235H103.529A28.235 28.235 0 0 1 75.294 320V320A28.235 28.235 0 0 1 103.529 291.765ZM432.941 291.765H536.471A28.235 28.235 0 0 1 564.706 320V320A28.235 28.235 0 0 1 536.471 348.235H432.941A28.235 28.235 0 0 1 404.706 320V320A28.235 28.235 0 0 1 432.941 291.765ZM484.706 240H484.706A28.235 28.235 0 0 1 512.941 268.235V371.765A28.235 28.235 0 0 1 484.706 400H484.706A28.235 28.235 0 0 1 456.471 371.765V268.235A28.235 28.235 0 0 1 484.706 240Z"/></svg>
