<svg xmlns="http://www.w3.org/2000/svg" viewBox="0 0 640 640"><path d="M75.294 108.235H564.706A75.294 75.294 0 0 1 640 183.529V456.471A75.294 75.294 0 0 1 564.706 531.765H75.294A75.294 75.294 0 0 1 0 456.471V183.529A75.294 75.294 0 0 1 75.294 108.235ZM75.294 169.412A14.118 14.118 0 0 0 61.176 183.529V456.471A14.118 14.118 0 0 0 75.294 470.588H564.706A14.118 14.118 0 0 0 578.824 456.471V183.529A14.118 14.118 0 0 0 564.706 169.412ZM136.471 291.765H256.471A28.235 28.235 0 0 1 284.706 320V320A28.235 28.235 0 0 1 256.471 348.235H136.471A28.235 28.235 0 0 1 108.235 320V320A28.235 28.235 0 0 1 136.471 291.765ZM352.941 216.471H400A23.529 23.529 0 0 1 423.529 240V400A23.529 23.529 0 0 1 400 423.529H352.941A23.529 23.529 0 0 1 329.412 400V240A23.529 23.529 0 0 1 352.941 216.471ZM461.176 216.471H508.235A23.529 23.529 0 0 1 531.765 240V400A23.529 23.529 0 0 1 508.235 423.529H461.176A23.529 23.529 0 0 1 437.647 400V240A23.529 23.529 0 0 1 461.176 216.471Z"/></svg>
